<?xml version="1.0" encoding="utf-8"?>
<!-- Generator: Adobe Illustrator 25.0.0, SVG Export Plug-In . SVG Version: 6.00 Build 0)  -->
<svg version="1.1" id="Layer_1" xmlns="http://www.w3.org/2000/svg" xmlns:xlink="http://www.w3.org/1999/xlink" x="0px" y="0px"
	 viewBox="0 0 70 70" style="enable-background:new 0 0 70 70;" xml:space="preserve">
<style type="text/css">
	.st0{fill:#FFFFFF;stroke:#000000;stroke-miterlimit:10;}
	.st1{fill:#FFFFFF;stroke:#000000;stroke-width:0.5;stroke-miterlimit:10;}
</style>
<path class="st0" d="M35,52.04c0,0-35.98-8.64-22.31-22.31S35,52.04,35,52.04z"/>
<path class="st0" d="M35,52.04c0,0,8.64-35.98,22.31-22.31S35,52.04,35,52.04z"/>
<line class="st0" x1="9.59" y1="26.63" x2="60.41" y2="26.63"/>
<path class="st0" d="M35,53.04c0,0-19.33-31.56,0-31.56S35,53.04,35,53.04z"/>
<rect x="15.26" y="16.97" transform="matrix(0.7071 0.7071 -0.7071 0.7071 20.472 -7.4751)" class="st1" width="8" height="8"/>
<rect x="46.74" y="16.97" transform="matrix(0.7071 0.7071 -0.7071 0.7071 29.6927 -29.7359)" class="st1" width="8" height="8"/>
<circle cx="16.18" cy="21.44" r="0.52"/>
<circle cx="17.95" cy="19.67" r="0.52"/>
<circle cx="50.79" cy="20.93" r="0.52"/>
<circle cx="19.73" cy="17.89" r="0.52"/>
<circle cx="18.79" cy="24.05" r="0.52"/>
<circle cx="20.57" cy="22.28" r="0.52"/>
<circle cx="22.34" cy="20.51" r="0.52"/>
</svg>
